<svg width="58" height="58" viewBox="0 0 58 58" fill="none" xmlns="http://www.w3.org/2000/svg">
<path d="M29.0002 0C12.9859 0 0 13.3121 0 29.7342C0 42.8715 8.30945 54.0172 19.8321 57.9489C21.2815 58.2241 21.8136 57.3039 21.8136 56.5185C21.8136 55.8095 21.7867 53.4672 21.7742 50.9826C13.7063 52.7813 12.0039 47.4744 12.0039 47.4744C10.6847 44.0375 8.78392 43.1236 8.78392 43.1236C6.15273 41.2782 8.98226 41.3161 8.98226 41.3161C11.8944 41.5259 13.4278 44.3802 13.4278 44.3802C16.0143 48.9259 20.212 47.6117 21.8669 46.852C22.1272 44.9302 22.8787 43.6185 23.7081 42.876C17.2667 42.1241 10.4955 39.5745 10.4955 28.1812C10.4955 24.9349 11.6283 22.2824 13.4835 20.2001C13.1824 19.4512 12.1897 16.427 13.7644 12.3313C13.7644 12.3313 16.1997 11.5322 21.7415 15.3792C24.0548 14.7204 26.5357 14.39 29.0002 14.3787C31.4648 14.39 33.9476 14.7204 36.2652 15.3792C41.8003 11.5322 44.2322 12.3313 44.2322 12.3313C45.8108 16.427 44.8176 19.4512 44.5165 20.2001C46.376 22.2824 47.5012 24.9349 47.5012 28.1812C47.5012 39.6016 40.7169 42.1162 34.2593 42.8523C35.2994 43.7751 36.2263 45.5846 36.2263 48.3587C36.2263 52.3372 36.1927 55.5392 36.1927 56.5185C36.1927 57.3098 36.7147 58.2369 38.1847 57.945C49.7011 54.0088 58 42.8671 58 29.7342C58 13.3121 45.016 0 29.0002 0ZM10.8615 42.357C10.7977 42.5047 10.571 42.549 10.3645 42.4476C10.1542 42.3506 10.036 42.1492 10.1042 42.001C10.1666 41.8489 10.3938 41.8065 10.6036 41.9084C10.8145 42.0054 10.9345 42.2088 10.8615 42.357ZM12.288 43.662C12.1497 43.7935 11.8793 43.7325 11.6959 43.5247C11.5062 43.3174 11.4707 43.0402 11.6109 42.9067C11.7535 42.7753 12.0157 42.8368 12.2059 43.0441C12.3956 43.2539 12.4326 43.5291 12.288 43.662ZM13.2666 45.3318C13.089 45.4584 12.7984 45.3397 12.6188 45.0753C12.4411 44.8109 12.4411 44.4938 12.6227 44.3667C12.8027 44.2397 13.089 44.3539 13.271 44.6164C13.4482 44.8852 13.4482 45.2023 13.2666 45.3318ZM14.9217 47.2656C14.7628 47.4454 14.4242 47.3971 14.1764 47.1519C13.9228 46.9121 13.8522 46.5719 14.0117 46.3922C14.1726 46.2119 14.513 46.2627 14.7628 46.5059C15.0144 46.7452 15.0912 47.0879 14.9217 47.2656ZM17.0607 47.9185C16.9906 48.1514 16.6645 48.2572 16.3361 48.1583C16.0081 48.0564 15.7934 47.7836 15.8597 47.5482C15.9279 47.3138 16.2554 47.2035 16.5863 47.3094C16.9138 47.4108 17.1289 47.6816 17.0607 47.9185ZM19.495 48.1954C19.5032 48.4406 19.2246 48.644 18.8798 48.6484C18.5331 48.6563 18.2527 48.4578 18.2488 48.2166C18.2488 47.9689 18.5211 47.7675 18.8678 47.7616C19.2126 47.7547 19.495 47.9517 19.495 48.1954ZM21.8864 48.1014C21.9277 48.3407 21.6881 48.5864 21.3457 48.6519C21.009 48.7149 20.6974 48.5672 20.6546 48.3299C20.6128 48.0847 20.8568 47.839 21.193 47.7755C21.5359 47.7144 21.8427 47.8582 21.8864 48.1014Z" fill="#161614"/>
</svg>
